/* XPM */
static char *collectible_0[] = {
/* columns rows colors chars-per-pixel */
"32 32 44 1 ",
"  c black",
". c #261400",
"X c #391F02",
"o c #7C8388",
"O c #9AACB6",
"+ c #331A00",
"@ c #80868A",
"# c #7B8185",
"$ c #797F83",
"% c gray1",
"& c #858C91",
"* c #351C00",
"= c #0B0A09",
"- c #222425",
"; c #4D4C4B",
": c #190D00",
"> c #595C5F",
", c #757C81",
"< c #383939",
"1 c #9FB1BC",
"2 c #96A8B2",
"3 c #767A7D",
"4 c #4E575C",
"5 c #535353",
"6 c #A7BAC5",
"7 c #696B6D",
"8 c #707476",
"9 c #9EA0A2",
"0 c #3D4041",
"q c #151515",
"w c #AEC2CC",
"e c #2E1400",
"r c #454442",
"t c #4F3212",
"y c #90969A",
"u c #656461",
"i c #272829",
"p c #D3D7DA",
"a c gray19",
"s c #C1C7CC",
"d c #ACAFB0",
"f c #B4B7B9",
"g c #A5A9AD",
"h c #8D9BA3",
/* pixels */
"                                ",
"                                ",
"            %%          %       ",
"             %=       q  %      ",
"        %  q78p9  % %4s9% %     ",
"       %  9ppw1w4  =8@odpr %    ",
"     %  adsO222w4 -,##89d< %    ",
"    %  4162OO26,% ;&$399  % %%  ",
"  %  iowO2OOOw,  =8o$of= % %   %",
" %  4O62OOO1O4   0&$,y7 % % a3= ",
"  iowOOOOO11<  % 0&$$&0 %%  gsfr",
"=4O62OOOO12rX*   >@$$&<   =9g7g3",
"4wOOOOOO6#XeXt: =$##$@>;77f93$y8",
"462OOO1O8*+X+*t:%3o##$@yyyo3##@<",
" o1211hr .X+*+Xt;@$###$,,,$#$@< ",
" i66h80   .X+Xe;&$#######$$$&0 %",
"  >&7>i % =*Xet#####$$oo#@&@>   ",
" %%q50%    =etoo$#$o&&,3$>0-    ",
"  % %     % i@o$#$@3r<=%=       ",
"         % -oo$#$&uXe     %     ",
"        % -@o$#$&u++XX          ",
"       % -@o$#$&u*+*+X.         ",
"      % -@o$#$&> .X+*+X.        ",
"     % -@#$#$@>   .X**+X.       ",
"    % -@o$$o@r     .X**+X.      ",
"   % -@#$#o3;= %    :e+**X.     ",
"    i@oo@,7<         :..+*X:    ",
"   q8#37u><           :...*:    ",
"  %;555;5<             :...=    ",
"  %;5;;><               ::%     ",
"   q55;i                        ",
"    qaq                         "
};
