/* XPM */
static char *enemy_2[] = {
/* columns rows colors chars-per-pixel */
"32 32 16 1 ",
"  c black",
". c #020600",
"X c #3C7B00",
"o c #397400",
"O c #366F00",
"+ c #408300",
"@ c #1E3D00",
"# c #54AC00",
"$ c #0B1600",
"% c #61C800",
"& c #468F00",
"* c #58B300",
"= c #4C9B00",
"- c #4FA200",
"; c #346A00",
": c #2E5F00",
/* pixels */
"                                ",
"                                ",
"               $$$              ",
"              X-==:.            ",
"             &&ooX#; .          ",
"            &X@o+:@-@           ",
"           @-@$X+:$+&           ",
"      .   .:+OooOooO=.   .      ",
"        $$.=*#######%@.$        ",
"     $:+-&*%#*###*##%%&-+:$     ",
"    $#&+O&%oOOOoOOOOo*&O+&#$    ",
"  . ;=;Xo%=oXXXXXXXXo=%oX;=; .  ",
"  . ;*oO=%oX+++++++XXo%=Oo*; .  ",
"    .O#-%&oX@@@@@@@oXo&%-#O.    ",
"       $%+Xo       @+o+%$       ",
"     $:O*XXo. .@@$  @+X*O:$     ",
"    O*=%#OXo. .+=@  @+O#%=*O    ",
"   =#X;##OXo. .@@$ $:+O##;X#=   ",
". O#;XO#*OXo.    . @+XO*#OX;#O .",
"  @=oo+%#OXo.  ...  @+O#%+oo=@  ",
"   &--&=*OXo. .OXO. .oo*=&--&   ",
"    $$  %+Xo. .OXO. .O+%  $$    ",
"       $%+Xo.  ...  $X+%$       ",
"    . @###oo...... $;o###@ .    ",
"      &+X%+XoooooooXX+%X+&      ",
"     &&oo##OXXXXXXXX;##oo&&     ",
"    @-oXo&%=;XXXXXX;=%&oXo-@    ",
"  . O&O+-=@&%XOOOO+%&@=-+O&O .  ",
"  . :#=+@   o#****%o   @+=#: .  ",
"    .$$   .  $OooO$  .   $$.    ",
"            .      .            ",
"              ....              "
};
