/* XPM */
static char *exit_3[] = {
/* columns rows colors chars-per-pixel */
"32 32 90 1 ",
"  c white",
". c #979898",
"X c #8E8C8C",
"o c gray11",
"O c #2D2D2D",
"+ c #272727",
"@ c gray13",
"# c #E7E7E7",
"$ c #898989",
"% c #CC3435",
"& c #949393",
"* c #9B9B9A",
"= c #C1C1C3",
"- c gray51",
"; c #515151",
": c #555552",
"> c gray99",
", c #D23839",
"< c #4E4E4E",
"1 c #3F431F",
"2 c #687310",
"3 c gray21",
"4 c #323232",
"5 c #3A3A3A",
"6 c #AAAAAA",
"7 c #909090",
"8 c #636B15",
"9 c gray44",
"0 c #7F7E7E",
"q c #CC4343",
"w c #868686",
"e c #62625F",
"r c #767677",
"t c gray40",
"y c #D03738",
"u c gray63",
"i c #7C7A7A",
"p c #585858",
"a c #D54C4C",
"s c #9E9D9D",
"d c #E1B4B4",
"f c gray8",
"g c gray42",
"h c #A5A6A5",
"j c #C94D4C",
"k c #565B28",
"l c #3F3F3E",
"z c #9C9594",
"x c #4D5130",
"c c #A04E4D",
"v c #BC3736",
"b c #F9F8F9",
"n c #B5B6B5",
"m c #5F6523",
"M c #CC7C7C",
"N c #464839",
"B c #B0AFAC",
"V c #5A601A",
"C c #484848",
"Z c #D85C5B",
"A c #C54746",
"S c #4D5321",
"D c #444929",
"F c #F3F1F1",
"G c #3F4232",
"H c #A75352",
"J c #B84343",
"K c #CB5858",
"L c #F3E6E6",
"P c #ECECEB",
"I c #DEDBDB",
"U c #555B18",
"Y c #C23F3E",
"T c #EEDBDB",
"R c #C56F6E",
"E c #DB5353",
"W c #BCBCBB",
"Q c #C77575",
"! c #B76061",
"~ c #DD6B6A",
"^ c #812F2F",
"/ c #DAAAAC",
"( c #7B7F5B",
") c #D5C7C7",
"_ c #888D6A",
"` c #A9AD88",
"' c #717834",
"] c #7D853B",
"[ c #9A9E7A",
"{ c #978C1C",
/* pixels */
"        F#####################Pb",
"       bnepppppp::::::;<<<<<<<XP",
"       >$tw9gtepp:;<CC3fffffff<#",
"       >$0hXw0i99gteeeloooooof<#",
"       >$067$-ir99gteeCooooooo<#",
"       >$-B&X$-ir99ggtCoooo@@o<#",
"       >$wn*&Xw-0rr9gg<o@@@@@o<#",
"     F/L$wns*&X$-0ir99<@@@@@@o<#",
"     LJM0$nu*.&X$-0ir9;@@++@+o<#",
"     LK~^Xnus.&7Xw-0rr:@+++++@;#",
" >bb>TK~K!Bus*.7X$-0irp++++++@;#",
"TMMMMRjEEKHsu*.&X$-$.-p++O+OO@;#",
"dAZZZZZa,EjH*s.&7Xw$.ht+O+OOO+;#",
"dja,,,,,,,ajHz*&7Xw--6t+OOOOO+;#",
"djay,,,,,,,aAcz.7X$$B.:OOOO44+;#",
"djayyyyy,yyyaYcz&X$6hrpO44443+;#",
"dAq%%%%%%%%yaYHz&77u-ie444443O;#",
"dAq%%%%%%%%qYcz*&7X$-0e444333O;#",
"dAq%%%%%%%qvcz**.&X$--e333335O;#",
"dvqAqqqq%qvc&..*.&7$w-t3335554;#",
"TMQRR!vqqvcX..**.&7Xw-t35555l4;#",
">bP#I)Jjvcz&.sss*.7X$wt5555ll4;#",
" >bFPIJv^i6*uhuu*.&7wgC5lllll3;#",
"   >bLJQi-nhh6hu*.&0:GGGNNNNNG:#",
"     bdF$wW666hhuXexDDDxxxxxxD:#",
"       >$wW666B*(kSSSSkkkkkkkS:#",
"       >$$W6nB_mUUVVVVVmmmmmmU:#",
"       >$$=B['888888888888282U:#",
"       >$-`]22222222222222222V:#",
"       >sND11111111111111111119#",
"       >I=====================IF",
"                              > "
};
