/* XPM */
static char *player1_6[] = {
/* columns rows colors chars-per-pixel */
"32 32 45 1 ",
"  c black",
". c gray48",
"X c gray3",
"o c #CECECE",
"O c gray78",
"+ c gray54",
"@ c gray91",
"# c #E2E2E2",
"$ c #E4E4E4",
"% c #E6E6E6",
"& c gray50",
"* c gray53",
"= c #D5D5D5",
"- c gray25",
"; c #D9D8D8",
": c #1E1E1E",
"> c #606161",
", c #505050",
"< c #9D9C9C",
"1 c #B5B4B4",
"2 c #585858",
"3 c #6F6F6F",
"4 c #BCBCBC",
"5 c #3A3A3A",
"6 c #D2D2D2",
"7 c #747474",
"8 c #DDDDDD",
"9 c gray27",
"0 c #929292",
"q c gray77",
"w c gray8",
"e c gray40",
"r c gray66",
"t c #4D747C",
"y c #AEAEAE",
"u c gray7",
"i c #F1F1F1",
"p c #9FA8AA",
"a c gray17",
"s c #355258",
"d c #1C3F46",
"f c #234147",
"g c #6E8A90",
"h c #7A878A",
"j c #459EB1",
/* pixels */
"              X,&&&,X           ",
"             -<;$$$;<-          ",
"            -=i#####$o5         ",
"           X<i@######8+X        ",
"           9;@###8###645        ",
"           7%##$$$$$$=Oe        ",
"           3%6qph.*+*7+2        ",
"           7@1.tjt4qq<sf        ",
"           9;##pgo$#81td        ",
"           X<$#8;###oq>         ",
"            -o$###86O15         ",
"             ,r=$#64+5          ",
"           w23r*+*&,X           ",
"          X04*%=qqO15X          ",
"          98*<$####87-          ",
"          .@+O######+2:         ",
"         :q%+q######132         ",
"         e##&q###8##O27X        ",
"         .%Oe=######=0&w        ",
"        :q$q+%#=qqqqOy3-        ",
"        e##47O40++++*07>        ",
"        7@#.3+0o$$$$q3,:        ",
"        -q0>;$$#####=r:         ",
"         w:1%#######6>          ",
"           ,q#$$$$$8r:          ",
"          w&>&+++...>3X         ",
"           &;qqqO*,y4e          ",
"           -o$###;>+*u          ",
"            9o####y5u           ",
"            a>o##81w            ",
"            2.>o%=<u            ",
"            X9a9&3:             "
};
