/* XPM */
static char *player2_5[] = {
/* columns rows colors chars-per-pixel */
"32 32 41 1 ",
"  c black",
". c #090909",
"X c gray79",
"o c gray40",
"O c gray90",
"+ c #898989",
"@ c #E7E7E7",
"# c #E2E2E2",
"$ c gray89",
"% c gray77",
"& c gray85",
"* c #161616",
"= c #1E1E1E",
"- c #E1E1E1",
"; c #727272",
": c #101111",
"> c #3C3D3D",
", c #B2B2B2",
"< c #7E7E7E",
"1 c #D5D5D5",
"2 c #5C5B5B",
"3 c #BCBBBB",
"4 c #A7A7A7",
"5 c #444444",
"6 c #6C6C6C",
"7 c gray61",
"8 c #9F9F9F",
"9 c #858484",
"0 c #939393",
"q c gray80",
"w c #A8AAAA",
"e c #4D4E4F",
"r c #AEAFAF",
"t c #46727B",
"y c #EFEFEF",
"u c gray20",
"i c #33555C",
"p c #797979",
"a c #4E95A3",
"s c #64878E",
"d c #5E7A80",
/* pixels */
"               .===.            ",
"             .57XXX75.          ",
"            :0-$$$$O&0:         ",
"            ;yy-----#-o         ",
"           =%yO-----#1w=        ",
"           o$#-#$$$$$1%2        ",
"           ;O#$1%%%%%,3o        ",
"           ;@,9dti<++6e>        ",
"           o$13saw#$-rti        ",
"           =%$$qr---13t:        ",
"            ;$##$--&XX2         ",
"            :01$$$&q3<:         ",
"            :5+4%%r9>.          ",
"           e4+&4+++6:           ",
"          =X89O$$$O1o=          ",
"          oO93$-----pe.         ",
"         .7@+%$-----46>         ",
"         5&O+%$----#32o         ",
"         ;@1oX#----#1;+*        ",
"        .7O%<--$$$$$146=        ",
"        5&$%+@-w++++8wp2        ",
"        ;OO82++4%%%%8oo>        ",
"        o@q2r%X-$$$$17>.        ",
"        *oe0$$#----#1+.         ",
"          .9%-$$O$$-,u          ",
"          *w6<+9;<+<2u          ",
"          *q1%%r:2X%%6          ",
"          *X$$$q*5&-X4:         ",
"          *X$-O8.*X-Xr*         ",
"          .7$#&5 .8&X,*         ",
"           ;@$0.  >,3<.         ",
"           ><;*    =>.          "
};
