/* XPM */
static char *player4_8[] = {
/* columns rows colors chars-per-pixel */
"32 32 37 1 ",
"  c black",
". c #888888",
"X c #676767",
"o c #1D1D1D",
"O c #E6E6E6",
"+ c #090909",
"@ c #E2E2E2",
"# c #E1E1E1",
"$ c #E4E4E4",
"% c #C5C5C5",
"& c #121313",
"* c gray28",
"= c #A8A9A9",
"- c #CACACA",
"; c gray85",
": c gray91",
"> c #9D9D9D",
", c gray44",
"< c #818181",
"1 c #3B3C3C",
"2 c #D5D5D5",
"3 c #B1B2B2",
"4 c gray54",
"5 c #777777",
"6 c #BAB9B9",
"7 c #C0C0C0",
"8 c gray58",
"9 c #575858",
"0 c gray37",
"q c #EFEFEF",
"w c #417782",
"e c #33555C",
"r c gray87",
"t c #618187",
"y c #4E95A3",
"u c #50686D",
"i c #909090",
/* pixels */
"               +ooo+            ",
"             +*>-%->*+          ",
"            &8r$@@@$;8&         ",
"            ,qq#####@#X         ",
"           o7qO#####@2=o        ",
"           X@@#@@@@@@2%9        ",
"           ,$@$2%%%%%37X        ",
"           ,O3<twe<4.,91        ",
"           X@26ty=@$#3we        ",
"           o%$$-3###26u&        ",
"            ,$@@@##r--9         ",
"            &i2$@@;-7<&         ",
"            &*4=%73.1+          ",
"           *=.;=...X&           ",
"          o%><$@$$$2Xo          ",
"          XO<6@#####5*+         ",
"         +>O.%@#####=,1         ",
"         *;$4%@#####700         ",
"         ,O2X-@####@25.&        ",
"        +>O%<##@$$$$2=Xo        ",
"        *;@%4O#=....>=50        ",
"        ,O$>94.=%%%%>XX1        ",
"        XO-03%-#@@@@2>1+        ",
"        &X*8$@@####@24+         ",
"          +,7#$$$$$#31          ",
"           1X<4.<.4<*+          ",
"          &72%%=5%%%=&          ",
"          o-@@O>5O@#3&          ",
"          o-@@;1X@@;3&          ",
"          o-@@8+o%@2.+          ",
"          +>:%o  ,@61           ",
"           1<*   o5*            "
};
