/* XPM */
static char *player3_1[] = {
/* columns rows colors chars-per-pixel */
"32 32 46 1 ",
"  c #E2E2E2",
". c gray3",
"X c gray91",
"o c #7C7D7D",
"O c gray77",
"+ c #898989",
"@ c #C8C8C8",
"# c black",
"$ c #E6E6E6",
"% c #E4E4E4",
"& c gray12",
"* c #D8D8D8",
"= c #CECECE",
"- c gray83",
"; c gray22",
": c #BCBCBC",
"> c #3F3F3F",
", c #A6A8A9",
"< c #616262",
"1 c #727272",
"2 c #858687",
"3 c gray30",
"4 c #595958",
"5 c #151515",
"6 c #8E8E8E",
"7 c #676767",
"8 c #808080",
"9 c #767676",
"0 c gray87",
"q c #B6B6B6",
"w c #959595",
"e c #6F6F6F",
"r c #464646",
"t c #B1B1B1",
"y c gray62",
"u c gray61",
"i c #4D747C",
"p c #F1F1F1",
"a c #0E0E0E",
"s c #1F4046",
"d c #535353",
"f c #434343",
"g c #355258",
"h c #6E8A90",
"j c #459EB1",
"k c #08E87D",
/* pixels */
"##############.38o83.###########",
"#############>y*%%%*u>##########",
"############>-p     %=;#########",
"###########.upX 0    0+.########",
"###########r*X     0 -:>########",
"###########1$  %%%%%%-@<########",
"###########1$-O,2o2++964########",
"###########1Xqoiji:OOwgs########",
"###########r*  ,h=% *tis########",
"###########.y% 0*  0=O<#########",
"############>=%   0-@q;#########",
"#############3,-% =:+;##########",
"###########54e,++2o3.###########",
"##########.w:2$-OOOt;.##########",
"##########f02u%    09>##########",
"##########oX+O     064&#########",
"#########&O$+O   0  qe4#########",
"#########7  oO      @49.########",
"#########o$@7-      -wo5########",
"########&O%O+$ -OOOO@te>########",
"########7  :9@:6++++269<########",
"########1X oe+6=%%%%Oed&########",
"########fOw<*%%     -,&#########",
"#########5&q$       -<##########",
"###########dO %%%%%0,&##########",
"##########5+<o+o12+o<4##########",
"##########5@*O@<.,@O:q;#########",
"##########&=  %7#3= @@6a########",
"##########7   =&##3O@OO8.#######",
"##########7  %y.###;w@O:;#######",
"##########&=$=>#####;,:85#######",
"##########ae8r#######&;.########"
};
