/* XPM */
static char *wall_7[] = {
/* columns rows colors chars-per-pixel */
"32 32 8 1 ",
"  c #0C0300",
". c #221205",
"X c #130800",
"o c #4A2C17",
"O c #462A15",
"+ c #54331B",
"@ c #643E22",
"# c #331D0D",
/* pixels */
"XXXXX o.XXXXXXXXX o.XXXXXX o.XXX",
"XXXXX o.XXXXXXXXX o.XXXXXX o.XXX",
"  X X O.   X X XX O.  X X  O.   ",
"oooooO@+OooooooooO@+ooooooO@+ooo",
".+#.......+#.......#+........+#.",
" O. XXXXX O. XXXXXX.O XXXXXX O. ",
" O.     X O.       .O X      O. ",
"O@+OoooooO@+Ooooooo+@OooooooO@+O",
"......+#..........+#.......+#...",
"XXXXX O. XXXXXXXX O.XXXXXX O.XXX",
"    X O.        X O.     X O.   ",
"oooooO@+OooooooooO@+ooooooO@+ooo",
".+#.......+#.......#+........+#.",
" O. XXXXX O. XXXXXX.O XXXXXX O. ",
" O.     X O.       .O X      O. ",
"O@+OoooooO@+Ooooooo+@OooooooO@+O",
"......+#..........+#.......+#...",
"XXXXX O. XXXXXXXX O.XXXXXX O.XXX",
"    X O.        X O.     X O.   ",
"oooooO@+OooooooooO@+ooooooO@+ooo",
".+#.......+#.......#+........+#.",
" O. XXXXX O. XXXXXX.O XXXXXX O. ",
" O.     X O.       .O X      O. ",
"O@+OoooooO@+Ooooooo+@OooooooO@+O",
"......+#..........+#.......+#...",
"XXXXX O. XXXXXXXX O.XXXXXX O.XXX",
"    X O.        X O.     X O.   ",
"oooooO@+OooooooooO@+ooooooO@+ooo",
".+#.......+#.......#+........+#.",
" O. XXXXX O. XXXXXX.O XXXXXX O. ",
" O.     X O.       .O X    X O. ",
"O@+ooooooO@+ooooooo+@OooooooO@+o"
};
