/* XPM */
static char *result[] = {
/* columns rows colors chars-per-pixel */
"32 32 12 1 ",
"  c #161616",
". c gray12",
"X c #251400",
"o c #351C00",
"O c #232222",
"+ c #5A3306",
"@ c #505050",
"# c #57595A",
"$ c #7B8185",
"% c #9BADB7",
"& c #D6D8DA",
"* c #E4E4E4",
/* pixels */
"                                ",
" OOOOOOOOOOOOOOOOOOOOOOOOOOOOO. ",
" OOOOOOOOOOOOOOOOOOOOOOOOOO.... ",
" OOOOOOOOOOOOOOOOOOOOOOOOOOOOOO ",
" OO...OOOOOOOOOOOOOOOOOOOOOOOOO ",
" OOOOOOOOOOOOOOOOOOOOOOOOOOOOOO ",
" OOOOOOOOOOOOOOOOOOOOOOOOOOOOOO ",
" OOOOOOOOOOOOO**OOOOOOOOOOOOOOO ",
" OOOOOOOOOOO**%&&OOO&&OOOOOOOOO ",
" OOOOOOOOO%%%%%%OO$$$&&OOOOOOOO ",
" OOOOOOOO%%%%%%OOO$$&OOO.....OO ",
" OOOOOOO%%%%%%OOO$$$&OOOOOOOOOO ",
" OOOOOO%%%%%%%OOO$$$$OOO&&&OOOO ",
" OOOO%%%%%%oooOOO$$$$OO&$$OOOOO ",
" OOOO%%%%%%ooo+OO$$$$$$$$$OOOOO ",
" OOOO%%%%#Ooooo+$$$$$$$$$OOOOOO ",
" OOOO%%%#OOOooo$$$$$$$$$$OOOOOO ",
" OOOOOO#OOOOOo$$$$$$OOOOOOOOOOO ",
" OOOOOOOOOOOO$$$$$+OOOOOOOOOOOO ",
" OOOOOOOOOOO$$$$$oooOOOOOOOOOOO ",
" OOOOOOOOOO$$$$$oooooOOOOOOOOOO ",
" OOOOOOOOO$$$$OOOoooooOOOOOOOOO ",
" OOOOOOOO$$$$$OOOooooooOOOOOOOO ",
" OOOOOOO$$$@OOOOOOOXooooOOOOOOO ",
" OOOOOO@@@@@OOOOOOOOXXooOOOOOOO ",
" OOOOOOO@@OOOO.....OXXXoOOOOOOO ",
" OOOOOOOOOOOOOOOOOOOOOXXOOOOOOO ",
" OOOOOOOOOOOOOOOOOOOOOOOOOOOOOO ",
" OOOOOOOOOOOOOOOOOOOOOOOOOOOOO. ",
" OOOOOOOOOOOOOOOOOOOOOOOOOOOOO. ",
" .....OOOOOOOOOOOOOOOOOOOOOOOO. ",
"                                "
};
