/* XPM */
static char *result[] = {
/* columns rows colors chars-per-pixel */
"64 64 10 1 ",
"  c black",
". c #251400",
"X c #351C00",
"o c #5A3306",
"O c #505050",
"+ c #57595A",
"@ c #7B8185",
"# c #9BADB7",
"$ c #D6D8DA",
"% c #E4E4E4",
/* pixels */
"                                                                ",
"                                                                ",
"                                                                ",
"                                                                ",
"                                                                ",
"                                                                ",
"                                                                ",
"                                                                ",
"                            %%%            @$$$                 ",
"                        %%%%%%%%          @@@$$$                ",
"                     %%%%%#######       @@@@@@$$$$              ",
"                    %%%##########       @@@@@@@@$$$             ",
"                   %%############     @@@@@@@@@@$$$             ",
"                 %%%#############    @@@@@@@@@@$$               ",
"                ################     @@@@@@@@@$$                ",
"              #################      @@@@@@@@$$                 ",
"             #################      @@@@@@@@@$                  ",
"           ##################       @@@@@@@@$$                  ",
"          ##################       @@@@@@@@@$                   ",
"        ##################         @@@@@@@@@$            $$$    ",
"       ##################          @@@@@@@@@@            $$$$$  ",
"     ###################X          @@@@@@@@@@           $$@@@$$ ",
"    ###################XXo         @@@@@@@@@@          $$@@@@$$ ",
"  ####################XXXooo      @@@@@@@@@@@         $$@@@@@@$ ",
" ###################XXXXXXoo      @@@@@@@@@@@       $$$@@@@@@@$ ",
" ##################XXXXXXXooo     @@@@@@@@@@@@@$$$$$$@@@@@@@@@$ ",
" #################XXXXXXXXXXoo    @@@@@@@@@@@@@@@@@@@@@@@@@@@@$ ",
" ###############+XXXXXXXXXXXXoo   @@@@@@@@@@@@@@@@@@@@@@@@@@@@  ",
"  ############++  XXXXXXXXXXXXoo @@@@@@@@@@@@@@@@@@@@@@@@@@@@   ",
"   ##########++    XXXXXXXXXXXXoo@@@@@@@@@@@@@@@@@@@@@@@@@@@@   ",
"   ########+++      XXXXXXXXXXX@@@@@@@@@@@@@@@@@@@@@@@@@@@@     ",
"    #####++++        XXXXXXXXXX@@@@@@@@@@@@@@@@@@@@@@@@@@@@     ",
"    #####++++        XXXXXXXXX@@@@@@@@@@@@@@@@@@@@@@@@@@@@      ",
"     ++++++++         XXXXXXX@@@@@@@@@@@@@@@@@@@@@@@@@@@@       ",
"       +++++           XXXXX@@@@@@@@@@@@@@@@@@@@@@@@@@@         ",
"        +++             XXX@@@@@@@@@@@@@@@@@@@@@@@@             ",
"                         X@@@@@@@@@@@@@@@@@@                    ",
"                         @@@@@@@@@@@@@@@                        ",
"                        @@@@@@@@@@@@@@XXo                       ",
"                       @@@@@@@@@@@@@@XXXXo                      ",
"                      @@@@@@@@@@@@@@XXXXXXo                     ",
"                     @@@@@@@@@@@@@@XXXXXXXXo                    ",
"                    @@@@@@@@@@@@@@XXXXXXXXXXX                   ",
"                   @@@@@@@@@@@@@@XXXXXXXXXXXXX                  ",
"                  @@@@@@@@@@@@@@  XXXXXXXXXXXXX                 ",
"                 @@@@@@@@@@@@@@    XXXXXXXXXXXXX                ",
"                @@@@@@@@@@@@@@      XXXXXXXXXXXXX               ",
"               @@@@@@@@@@@@@@        XXXXXXXXXXXXX              ",
"              @@@@@@@@@@@@OO          XXXXXXXXXXXXX             ",
"             @@@@@@@@@@@@@O            XXXXXXXXXXXXX            ",
"            @@@@@@@@@@@@@OO             ...XXXXXXXXXX           ",
"           @@@@@@@@@@@@OO                ...XXXXXXXXXX          ",
"          @@@@@@@@@@@@OO                  .....XXXXXXXX         ",
"         @@@@@@@@@@@OOO                    ......XXXXXX         ",
"        @@@@@@@@@@OOOO                      .......XXXX         ",
"       OO@@@@@OOOOOOO                        ........XX         ",
"      OOOOOOOOOOOOOO                          ........X         ",
"      OOOOOOOOOOOOO                            .......          ",
"      OOOOOOOOOOOO                              .....           ",
"      OOOOOOOOOOO                                               ",
"       OOOOOOOOO                                                ",
"        OOOOOO                                                  ",
"         OOOO                                                   ",
"                                                                "
};
