/* XPM */
static char *result[] = {
/* columns rows colors chars-per-pixel */
"32 32 6 1 ",
"  c black",
". c #161616",
"X c gray12",
"o c #232222",
"O c #3C7A00",
"+ c #68D500",
/* pixels */
"................................",
".oooooooooooooooooooooooooooooX.",
".ooooooooooooooooooooooooooXXXX.",
".ooooooooooooo++++ooooooooooooo.",
".ooXXXooooooo+OOOOOoooooooooooo.",
".ooooooooooo+OOOOOO+ooooooooooo.",
".oooooooooo+O  OO  O+oooooooooo.",
".oooooooooo+OOOOOOOO+oooooooooo.",
".oooooooooo+OOOOOOOO+oooooooooo.",
".ooooo++++++++++++++++++++ooooo.",
".oooo+OOOO+OOOOOOOOOO+OOOO+XXoo.",
".ooo+OOOO+OOOOOOOOOOOO+OOOO+ooo.",
".ooo+OOOO+OOOOOOOOOOOO+OOOO+ooo.",
".oooo++++OOOOOOOOOOOOOO++++oooo.",
".ooooooo+OOOO      OOOO+ooooooo.",
".ooooo+++OOO        OOO+++ooooo.",
".ooo++O+OOOO  OOOO  OOOO+O++ooo.",
".oo+OOO+OOOO  OOOO  OOOO+OOO+oo.",
".o+OOOO+OOOO        OOOO+OOOO+o.",
".o+OOOO+OOOO       OOOOO+OOOO+o.",
".oo+OO++OOOO        OOOO++OO+oo.",
".ooo++oo+OOO  OO    OOO+oo++ooo.",
".ooooooo+OOO  OOOO  OOO+ooooooo.",
".oooooo++OOO  OOOO  OOO++oooooo.",
".ooooo+OO+OO        OO+OO+ooooo.",
".oooo+OOO+OOO      OOO+OOO+oooo.",
".ooo+OOOOO+OOOOOOOOOO+OOOOO+ooo.",
".ooo+OOOO+o+OOOOOOOO+o+OOOO+ooo.",
".ooo+OO++ooo++OOOO++ooo++OO+ooX.",
".oooo++ooooooo++++ooooooo++oooX.",
".XXXXXooooooooooooooooooooooooX.",
"................................"
};
