/* XPM */
static char *result[] = {
/* columns rows colors chars-per-pixel */
"64 64 3 1 ",
"  c black",
". c #3C7A00",
"X c #68D500",
/* pixels */
"                                                                ",
"                                                                ",
"                                                                ",
"                                                                ",
"                                                                ",
"                                                                ",
"                             XXXXXXX                            ",
"                            X.......XX                          ",
"                           X..........X                         ",
"                          X...........X                         ",
"                         XX...........XX                        ",
"                        X.. . ..... . ..X                       ",
"                        X..   .....   ..X                       ",
"                       X.... ....... ....X                      ",
"                       X.................X                      ",
"                       X.................X                      ",
"                       X.................X                      ",
"                      XXXXXXXXXXXXXXXXXXXXX                     ",
"               XXXXXXXXXXXXXXXXXXXXXXXXXXXXXXXXXX               ",
"            XXX......XX..................XX......XXX            ",
"          XX........XX....................XX........XX          ",
"          X........XX......................XX........X          ",
"         XX........XX......................XX........XX         ",
"         X........XX........................XX........X         ",
"         X........XX........................XX........X         ",
"         XX......XX..........................XX......XX         ",
"          XXX...XXX..........................XXX...XXX          ",
"            XXXXXX......              ........XXXXXX            ",
"                XX......               .......XX                ",
"                XX......               .......XX                ",
"                XX......                 .....XX                ",
"            XXXXX.......      .....      ......XXXXX            ",
"          XXX..XX.......      .....      ......XX..XXX          ",
"        XXX....XX.......      .....      ......XX....XXX        ",
"       XX......XX.......      .....      ......XX......XX       ",
"      XX.......XX.......               ........XX.......XX      ",
"     XX........XX.......               ........XX........XX     ",
"     X.........XX.......               ........XX.........X     ",
"     X.........XX.......                 ......XX.........X     ",
"      X.......XXX.......                 ......XXX.......X      ",
"      XX....XXXXX.......      ......      .....XXXXX....XX      ",
"       XXXXXX  XX.......      ......      .....XX  XXXXXX       ",
"                XX......      ......      ....XX                ",
"                XX......      ......      ....XX                ",
"                XX......                  ....XX                ",
"                XX......                 .....XX                ",
"              XX.XX.....                 ....XX.XX              ",
"             XX..XX.....               ......XX..XX             ",
"             X....XX........................XX....X             ",
"            X.....XX........................XX.....X            ",
"           X.......XX......................XX.......X           ",
"          XX.......XX......................XX.......XX          ",
"          X.........XX....................XX.........X          ",
"         X..........XXX..................XXX..........X         ",
"         X........XXX XX................XX XXX........X         ",
"         X.......XX    XXX............XXX    XX.......X         ",
"         X.....XX       XXX.........XXXX       XX.....X         ",
"         XXXXXX           XXXXXXXXXXXX           XXXXXX         ",
"                            XXXXXXXX                            ",
"                                                                ",
"                                                                ",
"                                                                ",
"                                                                ",
"                                                                "
};
