/* XPM */
static char *result[] = {
/* columns rows colors chars-per-pixel */
"32 32 4 1 ",
"  c #161616",
". c gray12",
"X c #232222",
"o c white",
/* pixels */
"                                ",
" XXXXXXXXXXXXXXXXXXXXXXXXXXXXX. ",
" XXXXXXXXXXXXXXXXXXXXXXXXXX.... ",
" XXXXooooooooooooooooooooooXXXX ",
" XX..ooooooooooooooooooooooXXXX ",
" XXXXooooooooooooooooooooooXXXX ",
" XXXXooooooooooooooooooooooXXXX ",
" XXXXooooooooooooooooooooooXXXX ",
" XXXXooooooooooooooooooooooXXXX ",
" XXXXooooooooXXXXXXXXXXXXXXXXXX ",
" XXXXooooooooXXXXXXXXXXX.....XX ",
" XXXXooooooooXXXXXXXXXXXXXXXXXX ",
" XXXXoooooooooooooooooooooXXXXX ",
" XXXXoooooooooooooooooooooXXXXX ",
" XXXXoooooooooooooooooooooXXXXX ",
" XXXXoooooooooooooooooooooXXXXX ",
" XXXXoooooooooooooooooooooXXXXX ",
" XXXXoooooooooooooooooooooXXXXX ",
" XXXXooooooooXXXXXXXXXXXXXXXXXX ",
" XXXXooooooooXXXXXXXXXXXXXXXXXX ",
" XXXXooooooooXXXXXXXXXXXXXXXXXX ",
" XXXXooooooooXXXXXXXXXXXXXXXXXX ",
" XXXXooooooooXXXXXXXXXXXXXXXXXX ",
" XXXXooooooooXXXXXXXXXXXXXXXXXX ",
" XXXXooooooooooooooooooooooXXXX ",
" XXXXooooooooooooooooooooooXXXX ",
" XXXXooooooooooooooooooooooXXXX ",
" XXXXooooooooooooooooooooooXXXX ",
" XXXXooooooooooooooooooooooXXX. ",
" XXXXooooooooooooooooooooooXXX. ",
" .....XXXXXXXXXXXXXXXXXXXXXXXX. ",
"                                "
};
