/* XPM */
static char *result[] = {
/* columns rows colors chars-per-pixel */
"32 32 177 2 ",
"   c #161616",
".  c gray9",
"X  c #181717",
"o  c #181818",
"O  c gray7",
"+  c gray32",
"@  c #808080",
"#  c #7E7E7E",
"$  c #201F1F",
"%  c #222121",
"&  c gray13",
"*  c #1E1D1D",
"=  c gray29",
"-  c #9F9F9F",
";  c #D7D7D7",
":  c #E4E4E4",
">  c #9D9D9D",
",  c #212020",
"<  c #1D1D1D",
"1  c #232222",
"2  c #4C4B4B",
"3  c gray83",
"4  c gray94",
"5  c #E1E1E1",
"6  c #E2E2E2",
"7  c gray90",
"8  c #CECECE",
"9  c #464646",
"0  c #1F1E1E",
"q  c #202020",
"w  c #1E1E1E",
"e  c gray95",
"r  c #EAEAEA",
"t  c gainsboro",
"y  c gray55",
"u  c gray31",
"i  c #D8D8D8",
"p  c gray91",
"a  c gray89",
"s  c LightGray",
"d  c #BBBBBB",
"f  c #474646",
"g  c #1B1A1A",
"h  c #767676",
"j  c #E6E6E6",
"k  c #E4E3E3",
"l  c #E5E4E4",
"z  c #CACACA",
"x  c #686868",
"c  c #747474",
"v  c #C5C5C5",
"b  c #A1A7A8",
"n  c #7A878A",
"m  c #777E7F",
"M  c #868585",
"N  c #898989",
"B  c #888888",
"V  c #777777",
"C  c #8D8C8B",
"Z  c #5C5A5A",
"A  c #1C1B1B",
"S  c #E7E7E7",
"D  c #B6B6B6",
"F  c #7D7C7B",
"G  c #45727B",
"H  c #459EB1",
"J  c #5D777D",
"K  c #BCBABA",
"L  c #C3C3C3",
"P  c #999898",
"I  c #345258",
"U  c #27444B",
"Y  c #1E1C1C",
"T  c #9DA9AC",
"R  c #6E8A90",
"E  c #CECFCF",
"W  c gray86",
"Q  c #B3B1B1",
"!  c #45737D",
"~  c #21444B",
"^  c #1F1C1C",
"/  c #E0DFDF",
"(  c #D9D8D7",
")  c gray88",
"_  c #CDCDCD",
"`  c #606566",
"'  c gray8",
"]  c #4C4C4C",
"[  c gray81",
"{  c gray87",
"}  c gray79",
"|  c #B4B4B5",
" . c gray27",
".. c #161515",
"X. c gray66",
"o. c #D5D5D5",
"O. c gray82",
"+. c #8B8B8B",
"@. c #444343",
"#. c #5B5B5B",
"$. c gray44",
"%. c #A9A9A9",
"&. c gray53",
"*. c #505050",
"=. c gray58",
"-. c gray74",
";. c #868686",
":. c gray77",
">. c #C6C6C6",
",. c #B2B2B2",
"<. c #3E3E3E",
"1. c #504F4F",
"2. c gray52",
"3. c #9B9B9B",
"4. c #DDDDDD",
"5. c #444444",
"6. c gray10",
"7. c #555555",
"8. c #272727",
"9. c #9E9D9D",
"0. c #B1B1B1",
"q. c #6F6F6F",
"w. c #494848",
"e. c gray54",
"r. c #BCBCBC",
"t. c gray36",
"y. c #656565",
"u. c #1D1C1C",
"i. c #676767",
"p. c #D2D2D2",
"a. c #272626",
"s. c gray84",
"d. c #A7A7A7",
"f. c #6A6A6A",
"g. c gray19",
"h. c #AAAAAA",
"j. c gray62",
"k. c gray67",
"l. c #797979",
"z. c #626262",
"x. c #585858",
"c. c gray40",
"v. c #6C6C6C",
"b. c #5D5D5D",
"n. c gray69",
"m. c #C8C8C8",
"M. c #3C3B3B",
"N. c #2D2C2C",
"B. c #6E6D6D",
"V. c #4E4E4E",
"C. c gray59",
"Z. c #C0C0C0",
"A. c #424141",
"S. c #4B4B4B",
"D. c gray50",
"F. c gray30",
"G. c #282828",
"H. c #C1C1C1",
"J. c #ACACAC",
"K. c gray78",
"L. c gray65",
"P. c #2A2A2A",
"I. c #7C7C7C",
"U. c gray85",
"Y. c #DADADA",
"T. c gray12",
"R. c gray76",
"E. c #2D2D2D",
"W. c #1B1B1B",
"Q. c gray72",
"!. c #141313",
"~. c gray51",
"^. c #151515",
"/. c gray15",
"(. c gray46",
"). c #484848",
"_. c white",
/* pixels */
"  . X X X X X X X X X X o O o + @ # @ + o O o X X X X X X X .   ",
". $ % & & & & & & & & % * = - ; : : : ; > = * % & % & , , , < . ",
"X % 1 1 1 1 1 1 1 1 1 * 2 3 4 5 5 5 5 6 7 8 9 0 1 1 1 q q q w . ",
"X % 1 1 1 1 1 1 1 1 1 , - e r 5 5 5 5 5 5 t y $ 1 1 1 1 1 1 , X ",
"X % 1 q q q 1 1 1 1 * u i p a 5 5 5 5 5 6 s d f 0 1 1 1 1 1 % X ",
"X % 1 1 1 1 1 1 1 1 g h j 6 a k l l : : : 3 z x g 1 1 1 1 1 & X ",
"X & 1 1 1 1 1 1 1 1 g c j s v b n m M N B V C Z A 1 1 1 1 1 & X ",
"X & 1 1 1 1 1 1 1 1 g h S D F G H J K v L P I U Y 1 1 1 1 1 & X ",
"X & 1 1 1 1 1 1 1 1 * u i a 6 T R E : a W Q ! ~ ^ 1 1 1 1 1 & X ",
"X & 1 1 1 1 1 1 1 1 1 , - 7 5 / ( 6 5 ) _ v ` ' 1 1 1 1 1 1 % X ",
"X & 1 1 1 1 1 1 1 1 1 * ] [ : 6 6 5 { s } |  .0 q q q q q 1 % X ",
"X & 1 1 1 1 1 1 1 1 1 q ..u X.o.: 6 O.d +.@.$ 1 1 1 1 1 1 1 % X ",
"X & 1 1 1 1 1 1 1 1 * & #.$.%.B N &.# *.  * 1 1 1 1 1 1 1 1 & X ",
"X & 1 1 1 1 1 1 1 1 A =.-.;.S 3 :.:.>.,.<.< 1 1 1 1 1 1 1 1 & X ",
"X & 1 1 1 1 1 1 1 * 1.t 2.3.: 6 a a a 4.h 5.0 1 1 1 1 1 1 1 & X ",
"X & 1 1 1 1 1 1 1 6.c p N >.a 5 5 5 5 ) y 7.8.% 1 1 1 1 1 1 & X ",
"X & 1 1 1 1 1 1 1 , 9.S N :.a 5 5 5 5 ) 0.q.w.0 1 1 1 1 1 1 & X ",
"X & 1 1 1 1 1 1 * u i 7 e.:.a 5 5 5 5 6 r.t.y.u.1 1 1 1 1 1 & X ",
"X & 1 1 1 1 1 1 6.c j o.i.} 6 5 5 5 5 6 p.c &.a.% 1 1 1 1 1 & X ",
"X & 1 1 1 1 1 1 , 9.j :.# 5 5 a : : : : s.d.f.g., 1 1 1 1 1 & X ",
"X & 1 1 1 1 1 * u i a >.+.S 5 h.B N N B j.k.l.z.A 1 1 1 1 1 & X ",
"X & 1 1 1 1 1 g h j 7 j.x.+.B d.v :.:.>.- c.i.= 0 1 1 1 1 1 & X ",
"X & 1 1 1 1 1 A v.S _ b.n.v m.) a a a a s 3.M.1 1 1 1 1 1 1 & X ",
"X & 1 1 1 1 1 % N.B.V.C.: a 6 5 5 5 5 6 ; y w % 1 1 1 1 1 1 & X ",
"X & 1 1 1 1 1 1 % g q $.Z.5 : : : : : ) 0.A.0 1 1 1 1 1 1 1 & X ",
"X & 1 1 1 1 1 1 1 1 $ S.y.# e.;.D.N e.# F.w 1 1 1 1 1 1 1 1 & X ",
"X & 1 1 1 1 1 1 1 % G.H.; :.>.J.h K.:.L L.8.% 1 1 1 1 1 1 1 % X ",
"X & 1 1 1 1 1 1 1 % P.m.a a j 3.I.j a 5 ,.a.% 1 1 1 1 1 1 1 , X ",
"X % 1 1 1 1 1 1 1 % P.m.a 6 U.9 i.a 6 Y.0.a.% 1 1 1 1 1 1 1 T.. ",
"X , 1 1 1 1 1 1 1 % P.} a 5 C.q g.L a o.+., 1 1 1 1 1 1 1 1 w . ",
". < w w w T., % & , , - p R.E.$ W.c 6 Q.A.u.% & & & & & % , < . ",
"  . . . . . X X X o !.5.~.u ^.o   /.(.).' o X X X X X X X X .   "
};
