/* XPM */
static char *result[] = {
/* columns rows colors chars-per-pixel */
"32 32 179 2 ",
"   c #161616",
".  c gray9",
"X  c #181717",
"o  c #181818",
"O  c gray7",
"+  c gray10",
"@  c gray15",
"#  c #252525",
"$  c #201F1F",
"%  c #222121",
"&  c gray13",
"*  c #202020",
"=  c #4C4C4C",
"-  c gray62",
";  c #C8C8C8",
":  c gray78",
">  c #212020",
",  c #1D1D1D",
"<  c #232222",
"1  c #2B2A2A",
"2  c #979797",
"3  c #DFDFDF",
"4  c #E4E4E4",
"5  c gray89",
"6  c gray85",
"7  c #959595",
"8  c #2A2929",
"9  c #1E1E1E",
"0  c #1D1C1C",
"q  c gray46",
"w  c gray93",
"e  c #EFEFEF",
"r  c #E1E1E1",
"t  c #E2E2E2",
"y  c #6A6969",
"u  c gray19",
"i  c gray76",
"p  c #EEEEEE",
"a  c #E6E6E6",
"s  c #D5D5D5",
"d  c #A9A9A9",
"f  c #2C2C2C",
"g  c #1C1B1B",
"h  c #6C6C6C",
"j  c gray83",
"k  c #C5C5C5",
"l  c #5F5F5F",
"z  c #1B1A1A",
"x  c gray90",
"c  c #D6D5D5",
"v  c #C6C4C4",
"b  c #C7C6C6",
"n  c #C4C5C5",
"m  c gray77",
"M  c #C3C3C3",
"N  c gray70",
"B  c #BEBDBD",
"V  c #686868",
"C  c #E7E7E7",
"Z  c gray71",
"A  c #858484",
"S  c #5E7A80",
"D  c #457E8A",
"F  c #40575C",
"G  c #7F7E7E",
"H  c gray54",
"J  c #888888",
"K  c #6D6D6C",
"L  c #4D5455",
"P  c #3B4243",
"I  c LightGray",
"U  c #BBB9B9",
"Y  c #64878E",
"T  c #4E95A3",
"R  c #9EAAAC",
"E  c #B1B0AF",
"W  c #3C6F79",
"Q  c #285760",
"!  c #1E1B1B",
"~  c #CCCDCD",
"^  c #ACAFB0",
"/  c #E1E0E0",
"(  c #BBBABA",
")  c #50686D",
"_  c #142022",
"`  c gainsboro",
"'  c gray79",
"]  c #5F5E5E",
"[  c #1A1919",
"{  c #929292",
"}  c gray84",
"|  c #CBCBCB",
" . c gray74",
".. c #838383",
"X. c #292828",
"o. c gray28",
"O. c #A7A7A7",
"+. c gray69",
"@. c gray52",
"#. c gray26",
"$. c #191818",
"%. c gray31",
"&. c #898989",
"*. c #D8D8D8",
"=. c gray65",
"-. c gray53",
";. c #6A6A6A",
":. c #1E1D1D",
">. c #2F2E2E",
",. c #C6C6C6",
"<. c #9F9F9F",
"1. c #848484",
"2. c #D7D7D7",
"3. c gray40",
"4. c gray73",
"5. c gray88",
"6. c #797979",
"7. c #4E4E4E",
"8. c #7E7E7E",
"9. c gray91",
"0. c #626262",
"q. c #313030",
"w. c #B4B4B4",
"e. c gray43",
"r. c #5D5D5D",
"t. c #5A5A5A",
"y. c #767676",
"u. c #222222",
"i. c #676767",
"p. c #939393",
"a. c #7C7C7C",
"s. c #282727",
"d. c #8B8B8B",
"f. c #AEAEAE",
"g. c #6D6D6D",
"h. c #494949",
"j. c #1F1E1E",
"k. c #BBBBBB",
"l. c gray",
"z. c gray56",
"x. c #777777",
"c. c gray39",
"v. c gray48",
"b. c #6F6F6F",
"n. c #CDCDCD",
"m. c #535353",
"M. c #2F2F2F",
"N. c gray58",
"B. c #DADADA",
"V. c gray66",
"C. c #272626",
"Z. c #282828",
"A. c gray75",
"S. c #626161",
"D. c #868686",
"F. c gray50",
"G. c gray32",
"H. c #262525",
"J. c #C0C0C0",
"K. c #ACACAC",
"L. c #2A2A2A",
"P. c #9B9B9B",
"I. c #B2B2B2",
"U. c #464646",
"Y. c #B1B1B1",
"T. c gray12",
"R. c gray59",
"E. c #2D2D2D",
"W. c #1B1B1B",
"Q. c #747474",
"!. c gray72",
"~. c #424141",
"^. c #141313",
"/. c #444444",
"(. c gray51",
"). c #151515",
"_. c #484848",
"`. c gray8",
"'. c white",
/* pixels */
"  . X X X X X X X X X X o . O + @ # @ + O . o X X X X X X X .   ",
". $ % & & & & & & & & % $ * = - ; : ; - = * $ % & % & > > > , . ",
"X % < < < < < < < < < % 1 2 3 4 5 5 5 4 6 7 8 % < < < * * * 9 . ",
"X % < < < < < < < < < 0 q w e r r r r r t 3 y 0 < < < < < < > X ",
"X % < * * * < < < < > u i p a r r r r r t s d f % < < < < < % X ",
"X % < < < < < < < < g h t t r t 5 5 5 5 5 j k l g < < < < < & X ",
"X & < < < < < < < < z q x t 4 c v b n m M N B V z < < < < < & X ",
"X & < < < < < < < < z q C Z A S D F G H J K L P 0 < < < < < & X ",
"X & < < < < < < < < g h 5 I U Y T R t 4 r E W Q ! < < < < < & X ",
"X & < < < < < < < < > u i 4 4 ~ ^ / r r I ( ) _ $ < < < < < % X ",
"X & < < < < < < < < < 0 q 4 t t 5 r r ` ' : ] [ > * * * * < % X ",
"X & < < < < < < < < < % 8 { } 4 5 5 6 |  ...X.% < < < < < < % X ",
"X & < < < < < < < < < [ 9 o.H O.k i +.@.#.> % < < < < < < < & X ",
"X & < < < < < < < < $.%.O.&.*.=.J &.-.;.[ :.< < < < < < < < & X ",
"X & < < < < < < < > >.,.<.1.x 5 4 4 x 2.3.>.$ < < < < < < < & X ",
"X & < < < < < < < g h x 1.4.5 r r r r 5.6.7.< < < < < < < < & X ",
"X & < < < < < < < g 8.9.&.k 5 r r r r 5.=.0.q.> < < < < < < & X ",
"X & < < < < < < > u i a H m 5 r r r r r w.e.r.g < < < < < < & X ",
"X & < < < < < < g h 5 r 8.m 5 r r r r t ; t.y.u.< < < < < < & X ",
"X & < < < < < < g 8.a ' i.s t t 5 5 5 5 } p.a.s.% < < < < < & X ",
"X & < < < < < > u i 4 k d.a 5 j m m m m : f.g.h.j.< < < < < & X ",
"X & < < < < < g h t 5 k.y.: l.z.&.&.&.&.-.z.x.c.g < < < < < & X ",
"X & < < < < < z y.C 5 v.b.H z.n.x 4 4 x M g.m.M.% < < < < < & X ",
"X & < < < < < j.7.M N.c.B.x 4 t r r r t } V.C.> < < < < < < & X ",
"X & < < < < < < > s.Z.V.| r 4 4 4 4 4 r A.c.0 < < < < < < < & X ",
"X & < < < < < < < % > S.V 8.H D.F.&.H 8.G.H.% < < < < < < < & X ",
"X & < < < < < < < % Z.J.2.m ,.K.y.: m M =.C.% < < < < < < < % X ",
"X & < < < < < < < % L.; 5 5 a P.a.a 5 r I.C.% < < < < < < < > X ",
"X % < < < < < < < % L.; 5 t 6 U.i.5 t B.Y.C.% < < < < < < < T.. ",
"X > < < < < < < < % L.' 5 r R.* u M 5 s d.> < < < < < < < < 9 . ",
". , 9 9 9 T.> % & > > <.9.i E.$ W.Q.t !.~.0 % & & & & & % > , . ",
"  . . . . . X X X o ^./.(.%.).o   @ q _.`.o X X X X X X X X .   "
};
