/* XPM */
static char *result[] = {
/* columns rows colors chars-per-pixel */
"32 32 180 2 ",
"   c #161616",
".  c gray9",
"X  c #181717",
"o  c #181818",
"O  c gray7",
"+  c gray10",
"@  c gray15",
"#  c #252525",
"$  c #201F1F",
"%  c #222121",
"&  c gray13",
"*  c #202020",
"=  c #4C4C4C",
"-  c gray62",
";  c #C8C8C8",
":  c gray78",
">  c #212020",
",  c #1D1D1D",
"<  c #232222",
"1  c #2A2929",
"2  c #959595",
"3  c gray85",
"4  c #E4E4E4",
"5  c gray89",
"6  c #DFDFDF",
"7  c #979797",
"8  c #2B2A2A",
"9  c #1E1E1E",
"0  c #1D1C1C",
"q  c #6A6969",
"w  c #E2E2E2",
"e  c #E1E1E1",
"r  c #EFEFEF",
"t  c gray93",
"y  c gray46",
"u  c #2C2C2C",
"i  c #A9A9A9",
"p  c #D5D5D5",
"a  c #E6E6E6",
"s  c #EEEEEE",
"d  c gray76",
"f  c gray19",
"g  c #1C1B1B",
"h  c #5F5F5F",
"j  c #C5C5C5",
"k  c gray83",
"l  c #6C6C6C",
"z  c #1B1A1A",
"x  c #686868",
"c  c #BEBDBD",
"v  c gray70",
"b  c #C3C3C3",
"n  c gray77",
"m  c #C4C5C5",
"M  c #C7C6C6",
"N  c #C6C4C4",
"B  c #D6D5D5",
"V  c gray90",
"C  c #3B4243",
"Z  c #4D5455",
"A  c #6D6D6C",
"S  c #888888",
"D  c gray54",
"F  c #7F7E7E",
"G  c #40575C",
"H  c #457E8A",
"J  c #5E7A80",
"K  c #858484",
"L  c gray71",
"P  c #E7E7E7",
"I  c #1E1B1B",
"U  c #285760",
"Y  c #3C6F79",
"T  c #B1B0AF",
"R  c #9EAAAC",
"E  c #4E95A3",
"W  c #64878E",
"Q  c #BBB9B9",
"!  c LightGray",
"~  c #211F1F",
"^  c #142022",
"/  c #50686D",
"(  c #BBBABA",
")  c #E1E0E0",
"_  c #ACAFB0",
"`  c #CCCDCD",
"'  c #1A1919",
"]  c #5F5E5E",
"[  c gray79",
"{  c gainsboro",
"}  c #292828",
"|  c #838383",
" . c gray74",
".. c #CBCBCB",
"X. c gray84",
"o. c #929292",
"O. c gray26",
"+. c gray52",
"@. c gray69",
"#. c #A7A7A7",
"$. c gray28",
"%. c #1E1D1D",
"&. c #6A6A6A",
"*. c gray53",
"=. c #898989",
"-. c gray65",
";. c #D8D8D8",
":. c gray31",
">. c #191818",
",. c #2F2E2E",
"<. c gray40",
"1. c #D7D7D7",
"2. c #848484",
"3. c #9F9F9F",
"4. c #C6C6C6",
"5. c #4E4E4E",
"6. c #797979",
"7. c gray88",
"8. c gray73",
"9. c #313030",
"0. c #626262",
"q. c gray91",
"w. c #7E7E7E",
"e. c #5D5D5D",
"r. c gray43",
"t. c #B4B4B4",
"y. c #222222",
"u. c #767676",
"i. c #5A5A5A",
"p. c #282727",
"a. c #7C7C7C",
"s. c #939393",
"d. c #676767",
"f. c #1F1E1E",
"g. c #494949",
"h. c #6D6D6D",
"j. c #AEAEAE",
"k. c #8B8B8B",
"l. c gray39",
"z. c #777777",
"x. c gray56",
"c. c gray",
"v. c #BBBBBB",
"b. c #2F2F2F",
"n. c #535353",
"m. c #CDCDCD",
"M. c #6F6F6F",
"N. c gray48",
"B. c #272626",
"V. c gray66",
"C. c #DADADA",
"Z. c gray58",
"A. c gray75",
"S. c #282828",
"D. c #262525",
"F. c gray32",
"G. c gray50",
"H. c #868686",
"J. c #626161",
"K. c #ACACAC",
"L. c #C0C0C0",
"P. c #B2B2B2",
"I. c #9B9B9B",
"U. c #2A2A2A",
"Y. c #B1B1B1",
"T. c #464646",
"R. c gray12",
"E. c gray59",
"W. c #424141",
"Q. c gray72",
"!. c #747474",
"~. c #1B1B1B",
"^. c #2D2D2D",
"/. c gray8",
"(. c #484848",
"). c #151515",
"_. c gray51",
"`. c #444444",
"'. c #141313",
"]. c white",
/* pixels */
"  . X X X X X X X o . O + @ # @ + O . o X X X X X X X X X X .   ",
". $ % & & & & & % $ * = - ; : ; - = * $ % & & & & % & > > > , . ",
"X % < < < < < < % 1 2 3 4 5 5 5 4 6 7 8 % < < < < < < * * * 9 . ",
"X % < < < < < < 0 q 6 w e e e e e r t y 0 < < < < < < < < < > X ",
"X % < * * * < % u i p w e e e e e a s d f > < < < < < < < < % X ",
"X % < < < < < g h j k 5 5 5 5 5 w e w w l g < < < < < < < < & X ",
"X & < < < < < z x c v b n m M N B 4 w V y z < < < < < < < < & X ",
"X & < < < < < 0 C Z A S D F G H J K L P y z < < < < < < < < & X ",
"X & < < < < < I U Y T e 4 w R E W Q ! 5 l g < < < < < < < < & X ",
"X & < < < < < ~ ^ / ( ! e e ) _ ` 4 4 d f > < < < < < < < < % X ",
"X & < < < < < < ' ] : [ { e e 5 w w 4 y 0 < < < * * * * * < % X ",
"X & < < < < < < % } |  ...3 5 5 4 X.o.1 % < < < < < < < < < % X ",
"X & < < < < < < < % > O.+.@.d j #.D $.9 ' < < < < < < < < < & X ",
"X & < < < < < < < < %.' &.*.=.S -.;.=.#.:.>.< < < < < < < < & X ",
"X & < < < < < < < $ ,.<.1.V 4 4 5 V 2.3.4.,.> < < < < < < < & X ",
"X & < < < < < < < < 5.6.7.e e e e 5 8.2.V l g < < < < < < < & X ",
"X & < < < < < < > 9.0.-.7.e e e e 5 j =.q.w.g < < < < < < < & X ",
"X & < < < < < < g e.r.t.e e e e e 5 n D a d f > < < < < < < & X ",
"X & < < < < < < y.u.i.; w e e e e 5 n w.e 5 l g < < < < < < & X ",
"X & < < < < < % p.a.s.X.5 5 5 5 w w p d.[ a w.g < < < < < < & X ",
"X & < < < < < f.g.h.j.: n n n n k 5 a k.j 4 d f > < < < < < & X ",
"X & < < < < < g l.z.x.*.=.=.=.=.x.c.: u.v.5 w l g < < < < < & X ",
"X & < < < < < % b.n.h.b V 4 4 V m.x.D M.N.5 P u.z < < < < < & X ",
"X & < < < < < < > B.V.X.w e e e w 4 V C.l.Z.b 5.f.< < < < < & X ",
"X & < < < < < < < 0 l.A.e 4 4 4 4 4 e ..V.S.p.> < < < < < < & X ",
"X & < < < < < < < % D.F.w.D =.G.H.D w.x J.> % < < < < < < < & X ",
"X & < < < < < < < % B.-.b n : u.K.4.n 1.L.S.% < < < < < < < % X ",
"X & < < < < < < < % B.P.e 5 a a.I.a 5 5 ; U.% < < < < < < < > X ",
"X % < < < < < < < % B.Y.C.w 5 d.T.3 w 5 ; U.% < < < < < < < R.. ",
"X > < < < < < < < < > k.p 5 b f * E.e 5 [ U.% < < < < < < < 9 . ",
". , 9 9 9 R.> % & % 0 W.Q.w !.~.$ ^.d q.3.> > & & & & & % > , . ",
"  . . . . . X X X X o /.(.y @   o ).:._.`.'.o X X X X X X X .   "
};
