/* XPM */
static char *result[] = {
/* columns rows colors chars-per-pixel */
"64 64 5 1 ",
"  c black",
". c #5FCDE4",
"X c gray77",
"o c #E1E1E1",
"O c white",
/* pixels */
"                                                                ",
"                               oooooooo                         ",
"                             oooooooooooo                       ",
"                           oooooooooooooooo                     ",
"                          ooOooooooooooooooo                    ",
"                         oooOoooooooooooooooX                   ",
"                         ooOOoooooooooooooooX                   ",
"                        oooOoooooooooooooooXXX                  ",
"                        oooOoooooooooooooooXXX                  ",
"                       ooooooooooooooooooooXXXX                 ",
"                       ooooooooooooooooooooXXXX                 ",
"                       ooooooooooooooooooooXXXX                 ",
"                       oooooooooooooooooooXXXXX                 ",
"                       oooooooo              XX                 ",
"                       oooo    .... ooooooXX                    ",
"                       ooooooo ... oooooooXX ..                 ",
"                       oooooooo . ooooooooXX ..                 ",
"                        oooooooo ooooooooXXX .                  ",
"                        oooooooooooooooooXXXX                   ",
"                         oooooooooooooooXXXXX                   ",
"                         oooooooooooooooXXXXX                   ",
"                          ooooooooooooXXXXXX                    ",
"                           ooooooooooXXXXXX                     ",
"                             oooooooXXXXX                       ",
"                           oo  oooooXXX                         ",
"                        oo oooo                                 ",
"                       ooo ooooooooooooX                        ",
"                      oooo ooooooooooooXX                       ",
"                      ooo  ooooooooooooXX X                     ",
"                     oooo ooooooooooooooX X                     ",
"                     oooo ooooooooooooooX  X                    ",
"                     oooo ooooooooooooooXX X                    ",
"                    ooooo ooooooooooooooXX XX                   ",
"                    ooooo oooooooooooooooX XX                   ",
"                   oooooo oooooooooooooooX  X                   ",
"                   oooooo oooooooooooooooXX XX                  ",
"                   ooooo  oooooooooooooooXX XX                  ",
"                   ooooo ooooooooooooooooXXX X                  ",
"                  oooooo ooooooooooooooooXXX X                  ",
"                  oooooo ooooooooooooooooXXX XX                 ",
"                 ooooooo oooooo          XXX XX                 ",
"                 ooooooo ooooo oooooooooo XX XX                 ",
"                 oooooo       oooooooooooX   X                  ",
"                 oooooo oooooooooooooooooXXX X                  ",
"                 ooooo  oooooooooooooooooXXX                    ",
"                  ooo  ooooooooooooooooooXXX                    ",
"                      oooooooooooooooooooXX                     ",
"                      oooooooooooooooooooXX                     ",
"                       oooooooooooooooooXX                      ",
"                        ooooooooooooooooXX                      ",
"                      o   oooooooooooooo  X                     ",
"                      ooo                XX                     ",
"                      ooooooooo   ooooooXXXX                    ",
"                      ooooooooo   ooooooXXXXX                   ",
"                      ooooooooo    oooooXXXXX                   ",
"                      ooooooooo     ooooXXXXXX                  ",
"                     ooooooooo       oooXXXXXXX                 ",
"                     ooooooooo        oXXXXXXXXX                ",
"                     ooooooooo         XXXXXXXXX                ",
"                     oooooooo            XXXXXXXX               ",
"                      ooooooo            XXXXXXX                ",
"                      oooooo              XXXXX                 ",
"                      ooooo                 X                   ",
"                                                                "
};
