/* XPM */
static char *result[] = {
/* columns rows colors chars-per-pixel */
"32 32 176 2 ",
"   c #161616",
".  c gray9",
"X  c #181717",
"o  c #181818",
"O  c gray7",
"+  c gray32",
"@  c #808080",
"#  c #7E7E7E",
"$  c #201F1F",
"%  c #222121",
"&  c gray13",
"*  c #1E1D1D",
"=  c gray29",
"-  c #9D9D9D",
";  c #D7D7D7",
":  c #E4E4E4",
">  c #9F9F9F",
",  c #212020",
"<  c #1D1D1D",
"1  c #232222",
"2  c #1F1E1E",
"3  c #464646",
"4  c #CECECE",
"5  c gray90",
"6  c #E2E2E2",
"7  c #E1E1E1",
"8  c gray94",
"9  c gray83",
"0  c #4C4B4B",
"q  c #202020",
"w  c #1E1E1E",
"e  c gray55",
"r  c gainsboro",
"t  c #EAEAEA",
"y  c gray95",
"u  c #474646",
"i  c #BBBBBB",
"p  c LightGray",
"a  c gray89",
"s  c gray91",
"d  c #D8D8D8",
"f  c gray31",
"g  c #1B1A1A",
"h  c #686868",
"j  c #CACACA",
"k  c #E5E4E4",
"l  c #E4E3E3",
"z  c #E6E6E6",
"x  c #767676",
"c  c #1C1B1B",
"v  c #5C5A5A",
"b  c #8D8C8B",
"n  c #777777",
"m  c #888888",
"M  c #898989",
"N  c #868585",
"B  c #777E7F",
"V  c #7A878A",
"C  c #A1A7A8",
"Z  c #C5C5C5",
"A  c #747474",
"S  c #1E1C1C",
"D  c #27444B",
"F  c #345258",
"G  c #999898",
"H  c #C3C3C3",
"J  c #BCBABA",
"K  c #5D777D",
"L  c #459EB1",
"P  c #45727B",
"I  c #7D7C7B",
"U  c #B6B6B6",
"Y  c #E7E7E7",
"T  c #21444B",
"R  c #45737D",
"E  c #B3B1B1",
"W  c gray86",
"Q  c #CECFCF",
"!  c #6E8A90",
"~  c #9DA9AC",
"^  c gray8",
"/  c #606566",
"(  c #CDCDCD",
")  c gray88",
"_  c #D9D8D7",
"`  c #E0DFDF",
"'  c gray27",
"]  c #B4B4B5",
"[  c gray79",
"{  c gray87",
"}  c gray81",
"|  c #4C4C4C",
" . c #444343",
".. c #8B8B8B",
"X. c gray82",
"o. c #D5D5D5",
"O. c gray66",
"+. c #161515",
"@. c #505050",
"#. c gray53",
"$. c #A9A9A9",
"%. c gray44",
"&. c #5B5B5B",
"*. c #3E3E3E",
"=. c #B2B2B2",
"-. c #C6C6C6",
";. c gray77",
":. c #868686",
">. c gray74",
",. c gray58",
"<. c #444444",
"1. c #DDDDDD",
"2. c #9B9B9B",
"3. c gray52",
"4. c #504F4F",
"5. c #272727",
"6. c #555555",
"7. c gray10",
"8. c #494848",
"9. c #6F6F6F",
"0. c #B1B1B1",
"q. c #9E9D9D",
"w. c #1D1C1C",
"e. c #656565",
"r. c gray36",
"t. c #BCBCBC",
"y. c gray54",
"u. c #272626",
"i. c #D2D2D2",
"p. c #676767",
"a. c gray19",
"s. c #6A6A6A",
"d. c #A7A7A7",
"f. c gray84",
"g. c #626262",
"h. c #797979",
"j. c gray67",
"k. c gray62",
"l. c #AAAAAA",
"z. c gray40",
"x. c #585858",
"c. c #3C3B3B",
"v. c #C8C8C8",
"b. c gray69",
"n. c #5D5D5D",
"m. c #6C6C6C",
"M. c gray59",
"N. c #4E4E4E",
"B. c #6E6D6D",
"V. c #2D2C2C",
"C. c #424141",
"Z. c #C0C0C0",
"A. c gray30",
"S. c gray50",
"D. c #4B4B4B",
"F. c gray65",
"G. c gray78",
"H. c #ACACAC",
"J. c #C1C1C1",
"K. c #282828",
"L. c #7C7C7C",
"P. c #2A2A2A",
"I. c #DADADA",
"U. c gray85",
"Y. c gray12",
"T. c gray72",
"R. c #1B1B1B",
"E. c #2D2D2D",
"W. c gray76",
"Q. c #484848",
"!. c gray46",
"~. c gray15",
"^. c #151515",
"/. c gray51",
"(. c #141313",
"). c white",
/* pixels */
"  . X X X X X X X o O o + @ # @ + o O o X X X X X X X X X X .   ",
". $ % & & & & & % * = - ; : : : ; > = * % & & & & % & , , , < . ",
"X % 1 1 1 1 1 1 2 3 4 5 6 7 7 7 7 8 9 0 * 1 1 1 1 1 1 q q q w . ",
"X % 1 1 1 1 1 1 $ e r 7 7 7 7 7 7 t y > , 1 1 1 1 1 1 1 1 1 , X ",
"X % 1 q q q 1 2 u i p 6 7 7 7 7 7 a s d f * 1 1 1 1 1 1 1 1 % X ",
"X % 1 1 1 1 1 g h j 9 : : : k k l a 6 z x g 1 1 1 1 1 1 1 1 & X ",
"X & 1 1 1 1 1 c v b n m M N B V C Z p z A g 1 1 1 1 1 1 1 1 & X ",
"X & 1 1 1 1 1 S D F G H Z J K L P I U Y x g 1 1 1 1 1 1 1 1 & X ",
"X & 1 1 1 1 1 S T R E W a : Q ! ~ 6 a d f * 1 1 1 1 1 1 1 1 & X ",
"X & 1 1 1 1 1 1 ^ / Z ( ) 7 6 _ ` 7 5 > , 1 1 1 1 1 1 1 1 1 % X ",
"X & 1 1 1 1 1 1 2 ' ] [ p { 7 6 6 : } | * 1 1 1 q q q q q 1 % X ",
"X & 1 1 1 1 1 1 1 $  ...i X.6 : o.O.f +.q 1 1 1 1 1 1 1 1 1 % X ",
"X & 1 1 1 1 1 1 1 1 *   @.# #.M m $.%.&.& * 1 1 1 1 1 1 1 1 & X ",
"X & 1 1 1 1 1 1 1 1 < *.=.-.;.;.9 Y :.>.,.c 1 1 1 1 1 1 1 1 & X ",
"X & 1 1 1 1 1 1 1 2 <.x 1.a a a 6 : 2.3.r 4.* 1 1 1 1 1 1 1 & X ",
"X & 1 1 1 1 1 1 % 5.6.e ) 7 7 7 7 a -.M s A 7.1 1 1 1 1 1 1 & X ",
"X & 1 1 1 1 1 1 2 8.9.0.) 7 7 7 7 a ;.M Y q., 1 1 1 1 1 1 1 & X ",
"X & 1 1 1 1 1 1 w.e.r.t.6 7 7 7 7 a ;.y.5 d f * 1 1 1 1 1 1 & X ",
"X & 1 1 1 1 1 % u.#.A i.6 7 7 7 7 6 [ p.o.z A 7.1 1 1 1 1 1 & X ",
"X & 1 1 1 1 1 , a.s.d.f.: : : : a 7 7 # ;.z q., 1 1 1 1 1 1 & X ",
"X & 1 1 1 1 1 c g.h.j.k.m M M m l.7 Y ..-.a d f * 1 1 1 1 1 & X ",
"X & 1 1 1 1 1 2 = p.z.> -.;.;.Z d.m ..x.k.5 z x g 1 1 1 1 1 & X ",
"X & 1 1 1 1 1 1 1 c.2.p a a a a ) v.Z b.n.( Y m.c 1 1 1 1 1 & X ",
"X & 1 1 1 1 1 1 % w e ; 6 7 7 7 7 6 a : M.N.B.V.% 1 1 1 1 1 & X ",
"X & 1 1 1 1 1 1 1 2 C.0.) : : : : : 7 Z.%.q g % 1 1 1 1 1 1 & X ",
"X & 1 1 1 1 1 1 1 1 w A.# y.M S.:.y.# e.D.$ 1 1 1 1 1 1 1 1 & X ",
"X & 1 1 1 1 1 1 1 % 5.F.H ;.G.x H.-.;.; J.K.% 1 1 1 1 1 1 1 % X ",
"X & 1 1 1 1 1 1 1 % u.=.7 a z L.2.z a a v.P.% 1 1 1 1 1 1 1 , X ",
"X % 1 1 1 1 1 1 1 % u.0.I.6 a p.3 U.6 a v.P.% 1 1 1 1 1 1 1 Y.. ",
"X , 1 1 1 1 1 1 1 1 , ..o.a H a.q M.7 a [ P.% 1 1 1 1 1 1 1 w . ",
". < w w w Y., % & % w.C.T.6 A R.$ E.W.s > , , & & & & & % , < . ",
"  . . . . . X X X X o ^ Q.!.~.  o ^.f /.<.(.o X X X X X X X .   "
};
