/* XPM */
static char *result[] = {
/* columns rows colors chars-per-pixel */
"64 64 2 1 ",
"  c #150900",
". c #8A5833",
/* pixels */
"             .                       .                 .        ",
"             .                       .                 .        ",
"             .                       .                 .        ",
"             .                       .                 .        ",
"             .                       .                 .        ",
"             .                       .                 .        ",
"             .                       .                 .        ",
"................................................................",
"   .                 .                  .                  .    ",
"   .                 .                  .                  .    ",
"   .                 .                  .                  .    ",
"   .                 .                  .                  .    ",
"   .                 .                  .                  .    ",
"   .                 .                  .                  .    ",
"   .                 .                  .                  .    ",
"................................................................",
"             .                       .                 .        ",
"             .                       .                 .        ",
"             .                       .                 .        ",
"             .                       .                 .        ",
"             .                       .                 .        ",
"             .                       .                 .        ",
"             .                       .                 .        ",
"................................................................",
"   .                 .                  .                  .    ",
"   .                 .                  .                  .    ",
"   .                 .                  .                  .    ",
"   .                 .                  .                  .    ",
"   .                 .                  .                  .    ",
"   .                 .                  .                  .    ",
"   .                 .                  .                  .    ",
"................................................................",
"             .                       .                 .        ",
"             .                       .                 .        ",
"             .                       .                 .        ",
"             .                       .                 .        ",
"             .                       .                 .        ",
"             .                       .                 .        ",
"             .                       .                 .        ",
"................................................................",
"   .                 .                  .                  .    ",
"   .                 .                  .                  .    ",
"   .                 .                  .                  .    ",
"   .                 .                  .                  .    ",
"   .                 .                  .                  .    ",
"   .                 .                  .                  .    ",
"   .                 .                  .                  .    ",
"................................................................",
"             .                       .                 .        ",
"             .                       .                 .        ",
"             .                       .                 .        ",
"             .                       .                 .        ",
"             .                       .                 .        ",
"             .                       .                 .        ",
"             .                       .                 .        ",
"................................................................",
"   .                 .                  .                  .    ",
"   .                 .                  .                  .    ",
"   .                 .                  .                  .    ",
"   .                 .                  .                  .    ",
"   .                 .                  .                  .    ",
"   .                 .                  .                  .    ",
"   .                 .                  .                  .    ",
"................................................................"
};
